<?xml version="1.0" encoding="UTF-8"?>
<svg id="Capa_1" data-name="Capa 1" xmlns="http://www.w3.org/2000/svg" viewBox="0 0 65.93 85.9">
  <defs>
    <style>
      .cls-1 {
        stroke-width: .15px;
      }

      .cls-1, .cls-2, .cls-3, .cls-4, .cls-5 {
        fill: none;
      }

      .cls-1, .cls-3, .cls-4 {
        stroke: #000;
      }

      .cls-1, .cls-3, .cls-4, .cls-5 {
        stroke-miterlimit: 10;
      }

      .cls-6, .cls-7 {
        isolation: isolate;
      }

      .cls-8 {
        font-family: SourceSerifRoman-Bold, 'Source Serif Variable';
        font-size: 8px;
        font-variation-settings: 'wght' 700;
        font-weight: 700;
      }

      .cls-8, .cls-9 {
        fill: #212121;
      }

      .cls-2, .cls-9 {
        stroke-width: 0px;
      }

      .cls-3 {
        stroke-width: .5px;
      }

      .cls-4 {
        stroke-width: .25px;
      }

      .cls-5 {
        stroke: #212121;
      }

      .cls-7, .cls-10 {
        fill: #000;
        font-family: ArialMT, Arial;
        font-size: 12px;
      }
    </style>
  </defs>
  <path class="cls-9" d="M36.5,71.74s7.24-1.51,8.22.75l3.21-.62,2.3-2.63v-1.05s-2.68-.96-6.54-.09c-.03.14-.33.51-.33.51l-.43.38-.62.35-.7.32-1.22.42-1.44.44h-1.14s-.46.06-.46.06l-.58.5-.5.34v.3s.2.03.2.03Z"/>
  <path class="cls-9" d="M34.18,71.24l-.75-.39-.34-.03-1.13.02-1.56-.25-1.05-.32-.78-.32s-.26-.16-.3-.16c-.47-.07-.84-.13-.78-.42,0-.03.12-.43.15-.35l-.13-.31-.23-.34-.29-.28s-1.36,1.83-.5,2.71,3.94.81,8.18,1.17l.21-.25-.7-.5Z"/>
  <path class="cls-9" d="M31.02,61.9c1.29-2.77-13.13-2.13-13.13-2.13l.32-.54s12.78-.73,13.93,1.17c-.07.15-.13.22-.13.22l-.25.38.08.37-.44.64-.35.74-.04.81-.06,1.03-.23.8.17.61.14.37-.17.2-1.23-.59-.76-.5,2.15-3.6Z"/>
  <path class="cls-9" d="M65.93,33.43l-6.48-9.68s-7.7,1.6-14.5-.4-10.8-8.3-10.8-8.3c0,0-3.6,5.9-10.8,8.3-7.2,2.4-14.5,0-14.5,0l-5.94,9.99c2.91,3.45,5.45,5.82,6.36,13.45.3,3.4-1.12,6.84-1.88,10.43-1.3,6.13-1.05,8.29-.3,12.52.85,4.81,3.65,7.91,5.88,9.56,2.42,1.8,3.57,3.75,10.94,4.22,7.95.51,10.51,2.37,10.51,2.37,3.38-2.06,5.58-3.32,12.17-3.9,2.89-.25,5.42-1.83,8.82-4.23,3.4-2.3,3.95-4.67,5.09-8.53,1.41-4.77-.55-11.87-.55-11.87,0,0-2.15-4.38-1.5-10.37.86-8.04,7.47-13.57,7.47-13.57ZM57.37,46.52c-.58,7.64,1.5,11.59,1.5,11.59,0,0,1.79,7.29.21,11.13-.82,2.34-2.03,7.1-7.48,9.46s-9.1,2.03-11.6,2.85c-2.5.82-5.21,2.16-5.73,2.98,0,0-1.91-1.59-4.93-2.01-2.51-.35-8.39,0-14.3-3.81-3.68-2.37-5.83-5.24-6.62-10.27-.99-6.3,0-8.11.58-11.34.79-4.42,3.03-8.19.6-15.33-.89-2.62-2.19-5.44-4.69-8.31l4.69-7.9s6.01,1.61,13.2-.13,11.53-7.15,11.53-7.15c0,0,3.55,5,10.53,7.15s13.52.36,13.52.36l5.74,7.66s-6.17,5.48-6.75,13.06Z"/>
  <path class="cls-3" d="M34.1,46.8s1.8-1.4,4-.9"/>
  <path class="cls-3" d="M34.2,46.9s2-1.4,4.1-.7"/>
  <path class="cls-3" d="M34.3,47s2.5-1.4,4.3-.5"/>
  <g>
    <path class="cls-3" d="M34.1,47.2h4.8v-.2h-.2s.2-.2,0-.4c0,0,0-.3-.3-.3,0,0,0-.3-.3-.3,0,0,.1-.6-.8-.6s-1.6.2-3.1,1.2c0,0-.2.1-.2.3,0-.2,0,.3.1.3Z"/>
    <path class="cls-3" d="M33.9,47.2h-4.6v-.2h.2s-.2-.2,0-.4c0,0,0-.3.3-.3,0,0,0-.3.3-.3,0,0-.1-.6.8-.6s1.6.2,3,1.2c0,0,.1.1.2.3-.1-.1,0,.3-.2.3Z"/>
    <path class="cls-3" d="M33.9,46.8s-1.8-1.4-3.8-.9"/>
    <path class="cls-3" d="M33.8,47s-2-1.4-4-.7"/>
    <path class="cls-3" d="M33.8,47s-2.4-1.4-4.2-.5"/>
  </g>
  <path id="SVGID_1_" class="cls-2" d="M54,36.7s-1.6,2.4-2.6,9.3c-1,6.8,1.6,11.7,1.6,11.7,0,0,1.9,4.2,0,8-2,4.1-4.5,4.7-4.5,4.7"/>
  <text class="cls-10" transform="translate(0 10.3)"><tspan x="0" y="0"> </tspan></text>
  <path id="SVGID_2_" class="cls-2" d="M19.4,32.2s3.9.6,8.6-1.2c4.7-1.7,6.5-4.3,6.5-4.3,0,0,2,2.6,6.5,4.5s7.9,1.1,7.9,1.1"/>
  <g class="cls-6">
    <text class="cls-7" transform="translate(20.76 32.37) rotate(-4.21)"><tspan x="0" y="0"> </tspan></text>
  </g>
  <text class="cls-10" transform="translate(0 10.3)"><tspan x="0" y="0"> </tspan></text>
  <path id="SVGID_3_" class="cls-2" d="M18.8,72.5s-5.5-4.6-4.5-10.7c.8-4.8,3.2-9,1.9-16.6-1.1-7-4.1-12.2-4.1-12.2"/>
  <text class="cls-10" transform="translate(0 10.3)"><tspan x="0" y="0"> </tspan></text>
  <path id="SVGID_4_" class="cls-2" d="M26.4,40s2.8-4.5,7.6-4.5,7.5,4.6,7.6,5.1c0,.4-.1.5,0,.7"/>
  <g class="cls-6">
    <text class="cls-7" transform="translate(26.41 39.76) rotate(-46.55)"><tspan x="0" y="0"> </tspan></text>
  </g>
  <text class="cls-10" transform="translate(0 10.3)"><tspan x="0" y="0"> </tspan></text>
  <path class="cls-3" d="M34,36.8s1.1,1.4,1.1,4.9-.8,3.9-.8,3.9c0,0-1.2-.7-1.3-4s1-4.8,1-4.8Z"/>
  <path class="cls-3" d="M18.2,55.7s.7-.3,1.3,0c.6.3,1.1-.3,1.1-.3,0,0,.3-.4,1.4-.6,0,0,.2-.5.6-.4s.3.1.6.1c0,0,.3-.4.7,0,.4.4.6,1,1.4,1s1.3,0,1.8-.2c.6-.2,1-.7,1.3-1,.4-.2.7-.3,1.2,0s1.2.4,1.9.2c.7-.2.9-.6,3.2-.6s4.3.9,4.3.9c0,0,.3.3,1.3.3s.6-.3,2.5-.5c0,0,.8-.2,1.8,0,1,.1,2.6,1.4,3.5,1.5s1.1.3,1.4.4l.4.1"/>
  <g>
    <path class="cls-3" d="M37.13,70l-1.59,1.34-1.76-1.34s-.67-2.18-1.93-3.01-2.34-1.26-3.68-1.42-2.26-.33-2.26-.33c0,0,.42,2.18,1.67,3.52,1.26,1.42,1.42,1.59,3.52,2.01,1.59.25,2.34,0,2.34,0l1.51,1-1,.84s-.25.17-.17.33l.33.33s.17.17.33,0l1.09-1.09.67.33s.33.25.59,0,.25-.42.08-.5c-.17-.17-.67-.42-.67-.42l1.26-1.09s2.43.25,4.77-1.17c0,0,2.85-1.42,3.35-5.78,0,0-1.34.33-3.27.75s-3.1,1.51-3.85,2.6c-.67,1.26-1.34,3.1-1.34,3.1Z"/>
    <g>
      <path class="cls-1" d="M32.53,68.57s.42,1,.5,1.34l-1.26-.67s.17-1.26-.33-1.93"/>
      <path class="cls-1" d="M26.5,66.06s2.34,1.59,2.51,1.59-.33-1.34-.84-1.76"/>
      <line class="cls-1" x1="31.86" y1="69.24" x2="28.92" y2="67.74"/>
      <path class="cls-1" d="M29.51,66.23s1.09,1.51,1.09,2.34"/>
      <path class="cls-1" d="M28,68.49s.92-.08,1.34-.59"/>
      <path class="cls-1" d="M28.76,69.41s1.59-.67,1.59-.92"/>
      <path class="cls-1" d="M30.1,69.83s1.67-.17,1.93-.59"/>
      <path class="cls-1" d="M31.86,70.33s.92-.33,1-.59"/>
    </g>
    <g>
      <path class="cls-1" d="M37.72,69.83s4.69-3.1,5.44-3.77,2.01-1.59,2.01-1.59"/>
      <path class="cls-1" d="M43.25,64.64s-.75,1.09-.59,1.93"/>
      <path class="cls-1" d="M43.66,67.48s-1.09-.25-1.34-.67"/>
      <path class="cls-1" d="M41.82,65.22s-.92,1.09-1.09,2.68"/>
      <path class="cls-1" d="M42.91,68.49s-1.67-.17-2.01-.67"/>
      <path class="cls-1" d="M39.64,66.31s-.5,2.01-.5,2.6"/>
      <path class="cls-1" d="M41.82,69.24s-2.09,0-2.26-.5"/>
      <path class="cls-1" d="M38.56,67.99s-.5,1.09-.5,1.67"/>
      <path class="cls-1" d="M39.56,70.08s-1-.17-1.17-.59"/>
    </g>
  </g>
  <path class="cls-3" d="M34.1,62.4s-.8.2-1.3-.5c-.5-.6-.8-.5-.8-.5,0,0-.4-.7.7-1,1.1-.3,1.4.5,1.4.5"/>
  <path class="cls-3" d="M33,60.9s.5,0,.8.5l.3.5"/>
  <path class="cls-3" d="M33,60.4s.4,0,.6-.5c.2-.5.9-.3.9-.3.7-1,2.3-.7,2.3-.7,0,0,.3-.2.6.4.3.6,1.1.6,1.1.6,0,0,.5-.4,1.1-.3.3.2.4.6.4.6,0,0-.8,0-.9.4-.1.4-.3.8-.3,1.3,0,0,0,.9.3,1.1s1,.6.6,1.5-.8.9-1.5.9-1.2,0-1.7-.9c-.6-.9-1.3-.8-1.5-2"/>
  <path class="cls-3" d="M32,61.4s-1,.7-1,1.7,0,1.6-.2,2-.1,1.1.8,1.4c.9.3,1.71,1.99,1.71,1.99,0,0,1.06,2.24,1.96,2.64.9.5,2.38-3.23,2.48-3.23.1-.1.24-.65.37-.86.3-.48.8-.73.68-1.64"/>
  <path class="cls-3" d="M36,62.2s-.3-.1-.5,0"/>
  <path class="cls-4" d="M38.98,63.85c.4.2.16.2.26.3"/>
  <path class="cls-4" d="M37.53,64.75c-.12-.43.04-.26.04-.4"/>
  <path class="cls-3" d="M39,62.9s-1.5.2-2.2,1.3l-.3.4"/>
  <path class="cls-3" d="M38.8,62.7s-.7,0-1.6.6c-.8.7-.9,1.1-.9,1.1"/>
  <text class="cls-8" transform="translate(15.75 32.83) rotate(1.36)"><tspan x="0" y="0">A</tspan></text>
  <text class="cls-8" transform="translate(21.9 32.88) rotate(-13.37)"><tspan x="0" y="0">G</tspan></text>
  <text class="cls-8" transform="translate(28.02 31.3) rotate(-29.28)"><tspan x="0" y="0">R</tspan></text>
  <text class="cls-8" transform="translate(32.17 26.83) rotate(23.27)"><tspan x="0" y="0">A</tspan></text>
  <text class="cls-8" transform="translate(37.24 29.15) rotate(21.89)"><tspan x="0" y="0">R</tspan></text>
  <text class="cls-8" transform="translate(42.59 31.25) rotate(17.52)"><tspan x="0" y="0">I</tspan></text>
  <text class="cls-8" transform="translate(45.95 32.38) rotate(10.57)"><tspan x="0" y="0">A</tspan></text>
  <path class="cls-9" d="M51.25,46.6c.12-7.83,3.23-11.1,3.23-11.1l-1.33-1.83c-10.06,1.52-19.2-5.58-19.2-5.58-8.27,8-18.92,4.9-18.92,4.9l-1.45,1.83c4.18,8,4.36,14,2.58,21.52-1.97,7.21-1.66,10.15-.05,13.66,1.61,3.51,5.87,5.09,10.1,5.31,5.73.3,7.98,4,7.98,4,3.31-4.33,6.05-3.61,11.51-4.55,4.11-.7,6.06-2.76,7.39-7.32,1.33-4.56-.91-10.26-.91-10.26,0,0-1.05-2.76-.93-10.59ZM51.3,66.6c-.9,3.1-2.4,5.4-6.3,6.3s-3.9.1-7.3,1.4c-3.4,1.2-3.6,2.04-3.6,2.04,0,0-1.5-1.44-3.4-2.04-1.9-.6-6-1.1-6-1.1,0,0-4.5-.5-6.2-3.1-1.7-2.6-1.9-3.2-1.7-7.4s1.9-6.2,2.1-11.4c.2-5.2-.1-11-2.8-15.7,0,0,5.3.6,10.8-1.3,5.5-1.9,7.1-3.9,7.1-3.9,0,0,2.7,2.2,7.7,3.9,5,1.7,10.1,1.4,10.1,1.4,0,0-1.8,3.1-2.5,8.8-.7,5.7.7,12.2.7,12.2,0,0,2.2,6.8,1.3,9.9Z"/>
  <path class="cls-5" d="M49.3,44.5c.7-5.7,2.5-8.8,2.5-8.8,0,0-5.1.3-10.1-1.4-5-1.7-7.7-3.9-7.7-3.9,0,0-1.6,2-7.1,3.9-5.5,1.9-10.8,1.3-10.8,1.3,2.7,4.7,3,10.5,2.8,15.7-.2,5.2-1.9,7.2-2.1,11.4s0,4.8,1.7,7.4c1.7,2.6,6.2,3.1,6.2,3.1,0,0,4.1.5,6,1.1,1.9.6,3.4,2.04,3.4,2.04,0,0,.2-.84,3.6-2.04,3.4-1.3,3.4-.5,7.3-1.4s5.4-3.2,6.3-6.3c.9-3.1-1.3-9.9-1.3-9.9,0,0-1.4-6.5-.7-12.2Z"/>
  <text class="cls-8" transform="translate(22.89 75.53) rotate(-154.94)"><tspan x="0" y="0">U</tspan></text>
  <text class="cls-8" transform="translate(18.51 73.82) rotate(-129.33)"><tspan x="0" y="0">N</tspan></text>
  <text class="cls-8" transform="translate(15.55 70.12) rotate(-109.15)"><tspan x="0" y="0">I</tspan></text>
  <text class="cls-8" transform="translate(14.6 68.09) rotate(-93.79)"><tspan x="0" y="0">V</tspan></text>
  <text class="cls-8" transform="translate(14.38 63.63) rotate(-83.27)"><tspan x="0" y="0">E</tspan></text>
  <text class="cls-8" transform="translate(14.71 59.6) rotate(-76.04)"><tspan x="0" y="0">R</tspan></text>
  <text class="cls-8" transform="translate(16.22 54.53) rotate(-82.2)"><tspan x="0" y="0">S</tspan></text>
  <text class="cls-8" transform="translate(16.75 50.27) rotate(-90.75)"><tspan x="0" y="0">I</tspan></text>
  <text class="cls-8" transform="translate(16.8 47.17) rotate(-99.45)"><tspan x="0" y="0">D</tspan></text>
  <text class="cls-8" transform="translate(15.98 42.12) rotate(-108.07)"><tspan x="0" y="0">A</tspan></text>
  <text class="cls-8" transform="translate(14.34 37.06) rotate(-116.01)"><tspan x="0" y="0">D</tspan></text>
  <g>
    <path class="cls-9" d="M60.59,36.61l-.89,1.13c-.94,1.19-2.17,1.47-3.58.36-1.41-1.11-1.45-2.41-.55-3.54l.93-1.18,4.09,3.23ZM56.39,35.04c-.5.64-.5,1.34.47,2.11.98.77,1.62.58,2.12-.06l.12-.15-2.6-2.05-.12.15Z"/>
    <path class="cls-9" d="M58.14,39.7l-1.21,3.24-.93-.35.8-2.13-.98-.37-.68,1.81-.93-.35.68-1.81-1.12-.42-.83,2.21-.93-.35,1.24-3.31,4.88,1.83Z"/>
    <path class="cls-9" d="M56.87,45.97l-.03,1.18-4.22-.11-.06,2.32-.99-.03.09-3.5,5.21.14Z"/>
    <path class="cls-9" d="M56.84,50.89l.09,1.41-5.1,1.96-.08-1.25,2.59-.84c.51-.17,1.11-.36,1.65-.52v-.03c-.56-.09-1.18-.2-1.71-.29l-2.68-.5-.08-1.2,5.31,1.28ZM53.76,50.54l.16,2.49-.92.06-.16-2.49.92-.06Z"/>
    <path class="cls-9" d="M53.36,57.22l.95.46c-.22.46-.32.99-.19,1.48.12.49.37.66.61.6.36-.09.38-.41.46-.94l.12-.73c.07-.61.38-1.23,1.11-1.42.84-.21,1.7.38,1.97,1.48.15.61.08,1.28-.24,1.85l-.87-.4c.17-.42.23-.77.1-1.27-.09-.38-.31-.59-.61-.52-.3.08-.33.44-.39.97l-.11.69c-.08.72-.39,1.25-1.11,1.42-.84.21-1.75-.31-2.06-1.57-.17-.68-.1-1.45.25-2.11Z"/>
    <path class="cls-9" d="M58.96,61.28l.19,3.45-.99.06-.13-2.27-1.04.06.11,1.93-.99.05-.11-1.93-1.2.07.13,2.35-.99.05-.2-3.53,5.2-.29Z"/>
    <path class="cls-9" d="M58.91,66.53l-.23,1.16-4.14-.81-.45,2.28-.97-.19.67-3.43,5.11,1Z"/>
    <path class="cls-9" d="M57.88,71.09l-.62,1.09-2.42-.65c-.57-.15-1.08-.32-1.66-.46l-.02.03c.42.42.82.78,1.25,1.19l1.81,1.73-.6,1.05-3.76-3.94.7-1.23,5.31,1.2Z"/>
    <path class="cls-9" d="M53.63,77.11l-1.14.83-4.38-3.25,1.01-.74,2.1,1.73c.41.34.9.74,1.33,1.11l.03-.02c-.22-.52-.46-1.1-.67-1.59l-1.01-2.53.97-.71,1.76,5.16ZM52.27,74.32l-2.01,1.47-.54-.74,2.01-1.47.54.74Z"/>
  </g>
  <path class="cls-4" d="M36,64s-.17,1.88.3,3.15.29,2.93.29,2.93"/>
</svg>