<?xml version="1.0" encoding="utf-8"?>
<!-- Generator: Adobe Illustrator 25.3.0, SVG Export Plug-In . SVG Version: 6.00 Build 0)  -->
<svg version="1.1" id="Capa_1" xmlns="http://www.w3.org/2000/svg" xmlns:xlink="http://www.w3.org/1999/xlink" x="0px" y="0px"
	 viewBox="0 0 60.8 60" style="enable-background:new 0 0 60.8 60;" xml:space="preserve">
<style type="text/css">
	.st0{fill-rule:evenodd;clip-rule:evenodd;fill:#212121;}
</style>
<path class="st0" d="M59.5,33.2c-0.2-0.2-0.4-0.3-0.7-0.3c-1.5,1.5-3.3,3.1-5,4.1c-0.8,0.5-1.7,0.8-2.3,0.8c-1.4,0-2.1-1.4-2.3-3.6
	c-0.3-2.9-0.4-6.5-0.4-11.9c0-5.6-1.3-9.4-4.6-9.7c-0.1,0-0.3,0-0.4,0c-2.1,0-3.1,1.1-4.4,3.8c-1.1,2.3-2.9,5.7-6.2,12.1
	c-2.8,5.5-6,10.4-8.7,13.8c-0.8,0.9-1.3,1.6-1.9,1.9c-0.4,0.2-0.7,0.4-1.1,0.4c-1.1,0-1.8-0.9-2.1-3c-0.1-0.5-0.1-1.1-0.1-1.7
	c0-4.3,1.6-11.3,4.5-21.6c2.1-7.5,1.2-12.6-3.3-12.6h0h0c-1,0-1.9,0.4-2.7,1c-0.8,0.6-1.6,2-2.4,3.8c-0.8,2.1-6,12.4-14.2,17.7
	c-0.1,2,1.1,4,3.4,4.3c2.1,0.2,3.6-0.7,5.6-2l-0.8,3.5L9,35.1c-0.3,1.2-0.5,2.3-0.6,3.5C7.2,49,12,54.1,17.6,54.1
	c0.9,0,1.9-0.1,2.8-0.3c6.2-1.6,12.1-8.7,19.2-25c-0.1,1.8-0.1,3.4,0,5c0.5,9.4,4.2,12.2,9.4,12.2c4,0,7.7-2.1,9.5-4.6
	c1.4-1.8,1.9-3.8,1.9-5.4C60.5,34.6,60.1,33.7,59.5,33.2"/>
</svg>
