<?xml version="1.0" encoding="utf-8"?>
<!-- Generator: Adobe Illustrator 18.0.0, SVG Export Plug-In . SVG Version: 6.00 Build 0)  -->
<!DOCTYPE svg PUBLIC "-//W3C//DTD SVG 1.1//EN" "http://www.w3.org/Graphics/SVG/1.1/DTD/svg11.dtd">
<svg version="1.1" xmlns="http://www.w3.org/2000/svg" xmlns:xlink="http://www.w3.org/1999/xlink" x="0px" y="0px"
	 viewBox="0 0 48 48" style="enable-background:new 0 0 48 48;" xml:space="preserve">
<style type="text/css">
	.st0{fill:#1B1B1B;}
	.st1{fill-rule:evenodd;clip-rule:evenodd;fill:#1B1B1B;}
	.st2{display:none;}
</style>
<g id="Layer_1">
	<g>
		<g>
			<g>
				<path class="st1" d="M13.5,15.8c0.2-0.5,0.4-0.9,0.6-1.3c0.1-0.3,0.2-0.5,0.6-0.4c-0.1-0.2-0.3-0.5-0.4-0.7
					c-0.1-0.2-0.2-0.4-0.1-0.6c0.2-0.9-0.1-1.6-0.4-2.4c-0.1-0.3-0.4-0.8-1-0.7c-0.4-0.5-0.6,0.1-1,0.2c-0.5,0.1-1,0.2-1.6,0.3
					c-0.1,0-0.2-0.1-0.3-0.2c0.5-0.1,1-0.3,1.5-0.4c-0.1-0.1-0.2-0.2-0.2-0.2c0.2-0.3,0.3-0.5,0.4-0.7c0.2-0.2,0.4-0.4,0.6-0.3
					c0.4,0,0.5-0.1,0.5-0.5c0,0,0-0.1,0.1-0.2c0.4,0.3,0.7,0.1,0.9-0.3c0.1-0.3,1.1-0.3,1.3-0.1c0.3,0.2,0.6,0.5,0.8,0.8
					c0.1,0.2,0.3,0.2,0.5,0.2c0.8-0.2,1.5,0.2,2,0.7c0.2,0.2,0.5,0.2,0.7,0.3c0.5-0.6,1.2,0.2,1.7-0.2c0,0,0,0-0.1-0.1
					c-0.1-0.1-0.3-0.3-0.3-0.4c0-0.7,0.1-0.8,0.8-0.6c0.3,0.1,0.6,0,0.7,0.4c0.1,0.2,0.4,0.3,0.6,0.5c0.1,0.1,0.2,0.2,0.2,0.3
					c0,0.1-0.1,0.3-0.2,0.4c-0.6,0.2-0.9,0.8-1.3,1.2c-0.4,0.5-0.2,1.1,0.4,1.3c0.4,0.1,0.8,0.2,1.3,0.3c0.4,0.1,0.6,0.2,0.7,0.6
					c0.1,0.5,0.4,0.7,0.8,0.5c0-0.1-0.1-0.3-0.1-0.4c-0.1-0.3-0.3-0.5,0-0.8c0.2-0.2,0.1-0.4-0.1-0.6C24.2,11.5,24,11.2,24,11
					c-0.1-0.5,0.1-0.7,0.6-0.6c0.4,0,0.8,0.1,1,0.4c0.1,0.1,0.3,0.3,0.4,0.3c0.1,0,0.2-0.3,0.3-0.5c0.3,0.2,0.6,0.4,0.9,0.6
					c0.4,0.2,0.7,0.5,1.1,0.7c0.3,0.2,0.7,0.3,0.7,0.7c0,0.4-0.3,0.7-0.8,0.7c-0.7,0.1-1.1,0.5-1.3,1.2c0.2-0.2,0.3-0.3,0.5-0.5
					c0.4-0.4,0.6-0.4,0.8,0.1c0.2,0.4,0.4,0.6,0.9,0.5c0,0,0,0.1,0,0.1c-0.2,0.2-0.4,0.5-0.6,0.8c-0.1-0.2-0.2-0.3-0.2-0.5
					c-0.3,0.3-0.7,0.4-0.8,0.8H43C39.8,8.5,32.5,3.3,24,3.3c-8.5,0-15.8,5.1-19,12.5H13.5z M27.8,9.8c0.1,0.1-0.1,0.3-0.1,0.6
					c-0.6-0.2-1.2-0.3-1.9-0.5c0.2-0.2,0.4-0.4,0.6-0.7c-0.3,0-0.5,0-0.8-0.1c-0.3-0.7-1-0.2-1.6-0.4c-0.1,0-0.3-0.2-0.4-0.3
					c0-0.1,0.1-0.4,0.2-0.4c0.2-0.1,0.5-0.1,0.7-0.1c0.4,0.1,0.9,0.2,1.3,0.4c0.6,0.2,1.1,0.4,1.7,0.7c0.1,0.1,0.2,0.3,0.3,0.5
					c-0.3,0-0.4,0-0.6,0C27.5,9.5,27.7,9.6,27.8,9.8z M25.1,5.5c0.2,0,0.3-0.1,0.4-0.1c0.9,0.2,1.8,0.2,2.7,0.7
					c0.3,0.2,0.6,0.4,0.9,0.5c0.3,0.1,0.5,0.2,0.8,0.3c0.4,0.2,0.4,0.4,0.2,0.8c0.2,0.1,0.3,0.3,0.4,0.4c-0.2,0.4-0.1,0.7,0.2,1
					c0.2,0.2,0.3,0.4,0.5,0.6c-0.6,0.3-1.1,0-1.5-0.2c-0.3-0.2-0.6-0.4-0.9-0.6c-0.2-0.2-0.4-0.5-0.6-0.8C28.2,8.2,28.1,8.1,28,8
					c-0.4-0.2-0.8-0.5-1.3-0.7c-0.3-0.1-0.7-0.2-1.1-0.2c-0.5,0-0.7-0.2-0.8-0.7c0-0.1-0.1-0.3-0.1-0.5c0.2,0,0.3-0.1,0.5-0.1
					C25.2,5.8,25.1,5.7,25.1,5.5z M24.3,5.9c0.3-0.1,0.5,0.1,0.4,0.4c-0.1,0.8-0.3,1-1.1,0.9c0.1-0.3,0.1-0.5,0.2-0.7
					c-0.2-0.1-0.3-0.1-0.4-0.2c0,0,0-0.1,0-0.1C23.6,6,23.9,5.9,24.3,5.9z"/>
			</g>
			<g>
				<path class="st1" d="M38,32.2c-0.3,0.6-0.5,1.1-0.8,1.7c-0.2,0.4-0.4,0.8-0.5,1.2c-0.3,0.8-1.2,1.2-1.8,1.7
					c-0.1,0.1-0.3,0.2-0.4,0.4c-0.6,1.1-1.6,1.8-2.4,2.6c-0.1,0.1-0.3,0.1-0.4,0.2c-0.2,0.2-0.4,0.3-0.7,0.5
					c-0.1,0.1-0.1,0.2-0.2,0.2c-0.6,0.3-1.3,0.6-1.9,1c-0.4,0.3-0.8,0.6-1.2,0.9c-0.2,0.1-0.4,0.3-0.6,0.5c-0.2,0.2-0.5,0.2-0.6,0.6
					c0,0.1-0.3,0.2-0.4,0.2c-0.2,0-0.5,0-0.8-0.1c0.3-0.4,0.5-0.7,0.8-1c0.2-0.2,0.4-0.4,0.5-0.7c0-0.3,0.3-0.5,0.5-0.7
					c1-1.2,1.7-2.6,1.9-4.2c0-0.3,0-0.4-0.2-0.5c0,0,0,0-0.1,0c-0.9-0.3-1.6-0.9-1.9-1.9c-0.1-0.4-0.5-0.7-0.8-1
					c-0.4-0.4-0.4-0.7-0.1-1.1c0.1-0.1,0.1-0.2,0.1-0.3H5c3.2,7.3,10.5,12.5,19,12.5c8.5,0,15.8-5.1,19-12.5H38z"/>
			</g>
		</g>
		<g>
			<path class="st1" d="M46.3,17.1H1.7c-1,0-1.7,0.8-1.7,1.7v10.3c0,0.9,0.8,1.7,1.7,1.7h44.6c1,0,1.7-0.8,1.7-1.7V18.8
				C48,17.9,47.2,17.1,46.3,17.1z M18.6,21.5l-1.2,5c-0.1,0.3-0.2,0.6-0.2,0.7c-0.1,0.2-0.2,0.3-0.3,0.4c-0.1,0.1-0.3,0.2-0.6,0.2
				c-0.2,0-0.4-0.1-0.5-0.2c-0.1-0.1-0.2-0.2-0.3-0.4c-0.1-0.1-0.1-0.4-0.2-0.7l-1.2-4.4l-1.2,4.4c-0.1,0.3-0.2,0.6-0.2,0.7
				c-0.1,0.1-0.2,0.3-0.3,0.4c-0.1,0.1-0.3,0.2-0.5,0.2c-0.2,0-0.3,0-0.5-0.1c-0.1-0.1-0.2-0.2-0.3-0.3c-0.1-0.1-0.1-0.3-0.2-0.4
				c0-0.2-0.1-0.3-0.1-0.5l-1.2-5c-0.1-0.3-0.1-0.5-0.1-0.7c0-0.2,0.1-0.4,0.2-0.5c0.1-0.1,0.3-0.2,0.5-0.2c0.3,0,0.5,0.1,0.6,0.3
				c0.1,0.2,0.2,0.4,0.2,0.8l1,4.3l1.1-4c0.1-0.3,0.2-0.5,0.2-0.7c0.1-0.2,0.2-0.3,0.3-0.4c0.1-0.1,0.3-0.2,0.6-0.2
				c0.3,0,0.4,0.1,0.6,0.2c0.1,0.1,0.2,0.3,0.3,0.4c0.1,0.1,0.1,0.4,0.2,0.7l1.1,4l1-4.3c0-0.2,0.1-0.4,0.1-0.5
				c0-0.1,0.1-0.2,0.2-0.3c0.1-0.1,0.3-0.2,0.4-0.2c0.2,0,0.4,0.1,0.5,0.2c0.1,0.1,0.2,0.3,0.2,0.5C18.7,21,18.7,21.2,18.6,21.5z
				 M28.6,21.5l-1.2,5c-0.1,0.3-0.2,0.6-0.2,0.7c-0.1,0.2-0.2,0.3-0.3,0.4c-0.1,0.1-0.3,0.2-0.6,0.2c-0.2,0-0.4-0.1-0.5-0.2
				c-0.1-0.1-0.2-0.2-0.3-0.4c-0.1-0.1-0.1-0.4-0.2-0.7L24,22.1l-1.2,4.4c-0.1,0.3-0.2,0.6-0.2,0.7c-0.1,0.1-0.2,0.3-0.3,0.4
				c-0.1,0.1-0.3,0.2-0.5,0.2c-0.2,0-0.3,0-0.5-0.1c-0.1-0.1-0.2-0.2-0.3-0.3c-0.1-0.1-0.1-0.3-0.2-0.4c0-0.2-0.1-0.3-0.1-0.5
				l-1.2-5c-0.1-0.3-0.1-0.5-0.1-0.7c0-0.2,0.1-0.4,0.2-0.5c0.1-0.1,0.3-0.2,0.5-0.2c0.3,0,0.5,0.1,0.6,0.3c0.1,0.2,0.2,0.4,0.2,0.8
				l1,4.3l1.1-4c0.1-0.3,0.2-0.5,0.2-0.7c0.1-0.2,0.2-0.3,0.3-0.4c0.1-0.1,0.3-0.2,0.6-0.2c0.3,0,0.4,0.1,0.6,0.2
				c0.1,0.1,0.2,0.3,0.3,0.4c0.1,0.1,0.1,0.4,0.2,0.7l1.1,4l1-4.3c0-0.2,0.1-0.4,0.1-0.5c0-0.1,0.1-0.2,0.2-0.3
				c0.1-0.1,0.3-0.2,0.4-0.2c0.2,0,0.4,0.1,0.5,0.2c0.1,0.1,0.2,0.3,0.2,0.5C28.7,21,28.6,21.2,28.6,21.5z M38.5,21.5l-1.2,5
				c-0.1,0.3-0.2,0.6-0.2,0.7c-0.1,0.2-0.2,0.3-0.3,0.4c-0.1,0.1-0.3,0.2-0.6,0.2c-0.2,0-0.4-0.1-0.5-0.2c-0.1-0.1-0.2-0.2-0.3-0.4
				c-0.1-0.1-0.1-0.4-0.2-0.7L34,22.1l-1.2,4.4c-0.1,0.3-0.2,0.6-0.2,0.7c-0.1,0.1-0.2,0.3-0.3,0.4c-0.1,0.1-0.3,0.2-0.6,0.2
				c-0.2,0-0.3,0-0.5-0.1c-0.1-0.1-0.2-0.2-0.3-0.3c-0.1-0.1-0.1-0.3-0.2-0.4c0-0.2-0.1-0.3-0.1-0.5l-1.2-5
				c-0.1-0.3-0.1-0.5-0.1-0.7c0-0.2,0.1-0.4,0.2-0.5c0.1-0.1,0.3-0.2,0.5-0.2c0.3,0,0.5,0.1,0.6,0.3c0.1,0.2,0.2,0.4,0.2,0.8l1,4.3
				l1.1-4c0.1-0.3,0.2-0.5,0.2-0.7c0.1-0.2,0.2-0.3,0.3-0.4c0.1-0.1,0.3-0.2,0.6-0.2c0.3,0,0.4,0.1,0.6,0.2c0.1,0.1,0.2,0.3,0.3,0.4
				c0.1,0.1,0.1,0.4,0.2,0.7l1.1,4l1-4.3c0-0.2,0.1-0.4,0.1-0.5c0-0.1,0.1-0.2,0.2-0.3c0.1-0.1,0.3-0.2,0.4-0.2
				c0.2,0,0.4,0.1,0.5,0.2c0.1,0.1,0.2,0.3,0.2,0.5C38.6,21,38.6,21.2,38.5,21.5z"/>
		</g>
	</g>
</g>
<g id="nyt_x5F_exporter_x5F_info" class="st2">
</g>
</svg>
